<svg xmlns="http://www.w3.org/2000/svg" viewBox="0 0 64 64"><path fill="#f4556f" d="M50 42.36A2 2 0 0 0 50.89 44l7 4.66A2 2 0 0 0 61 47V17a2 2 0 0 0-3.19-1.61l-7 5.14A2 2 0 0 0 50 22.12zM25 27a3 3 0 1 0 3 3 2 2 0 0 1 4 0 7 7 0 0 1-7 7 16.93 16.93 0 0 0 12-5A16.93 16.93 0 0 0 25 27z"/><path fill="#f4556f" d="M9,50H41a6,6,0,0,0,6-6V20a6,6,0,0,0-6-6H9a6,6,0,0,0-6,6V44A6,6,0,0,0,9,50ZM8.72,30.74a21,21,0,0,1,32.55,0,2,2,0,0,1,0,2.53,21,21,0,0,1-32.55,0A2,2,0,0,1,8.72,30.74Z"/><path fill="#f4556f" d="M18,30a7,7,0,0,1,.18-1.56A17,17,0,0,0,13,32a16.93,16.93,0,0,0,12,5A7,7,0,0,1,18,30Z"/></svg>